# xmcd CD database file
#
# Track frame offsets:
#	150
#	12530
#	24215
#	37080
#	48560
#	60615
#	74605
#	85037
#	98015
#	111175
#
# Disc length: 1638 seconds
#
# Revision: 0
# Processed by: cddbd v1.4PL0 Copyright (c) Steve Scherf et al.
# Submitted via: CDex 1.40Release
#
DISCID=8006640a
DTITLE=Ray Charles - Rare Charles Blues
DYEAR=1900
DGENRE=Blues
TTITLE0=Honey, Honey
TTITLE1=Ray Charles Blues
TTITLE2=You Always Miss The Water When The Well Runs Dry
TTITLE3=She's On The ball
TTITLE4=How Long
TTITLE5=Some Day
TTITLE6=Ain't That Fine
TTITLE7=Don't Put All Your Dreams In One Basket
TTITLE8=Baby Won't You Please Come Home
TTITLE9=Tell Me Baby
EXTD=ID3G: 0
EXTT0=
EXTT1=
EXTT2=
EXTT3=
EXTT4=
EXTT5=
EXTT6=
EXTT7=
EXTT8=
EXTT9=
PLAYORDER=
